<svg viewBox="0 0 400 300" xmlns="http://www.w3.org/2000/svg" role="img" aria-label="Ocean Power: Keep the Lights On thumbnail">
  <defs>
    <linearGradient id="sky" x1="0" y1="0" x2="0" y2="1"><stop offset="0%" stop-color="#0a1c44"/><stop offset="55%" stop-color="#4a3a86"/><stop offset="100%" stop-color="#ff9a62"/></linearGradient>
    <linearGradient id="sea" x1="0" y1="0" x2="0" y2="1"><stop offset="0%" stop-color="#c9707a"/><stop offset="30%" stop-color="#27527f"/><stop offset="100%" stop-color="#071b33"/></linearGradient>
    <radialGradient id="sun" cx="50%" cy="50%" r="50%"><stop offset="0%" stop-color="#fff2b5"/><stop offset="100%" stop-color="#ffd166" stop-opacity="0"/></radialGradient>
    <linearGradient id="glow" x1="0" y1="0" x2="0" y2="1"><stop offset="0%" stop-color="#ffd98a" stop-opacity=".55"/><stop offset="100%" stop-color="#ffd98a" stop-opacity="0"/></linearGradient>
  </defs>
  <rect width="400" height="300" fill="url(#sky)"/>
  <circle cx="250" cy="168" r="80" fill="url(#sun)"/>
  <circle cx="250" cy="170" r="17" fill="#fff0b0"/>
  <g fill="#fff" opacity=".9"><circle cx="40" cy="30" r="1.3"/><circle cx="90" cy="55" r="1"/><circle cx="150" cy="22" r="1.4"/><circle cx="300" cy="40" r="1.1"/><circle cx="360" cy="68" r="1.3"/><circle cx="210" cy="48" r="1"/></g>
  <rect y="172" width="400" height="128" fill="url(#sea)"/>
  <path d="M0 186q25-5 50 0t50 0 50 0 50 0 50 0 50 0 50 0 50 0" fill="none" stroke="#fff" stroke-opacity=".28" stroke-width="1.4"/>
  <path d="M0 204q25-7 50 0t50 0 50 0 50 0 50 0 50 0 50 0 50 0" fill="none" stroke="#fff" stroke-opacity=".22" stroke-width="2"/>
  <path d="M0 232q25-9 50 0t50 0 50 0 50 0 50 0 50 0 50 0 50 0" fill="none" stroke="#fff" stroke-opacity=".18" stroke-width="2.6"/>
  <path d="M0 266q25-11 50 0t50 0 50 0 50 0 50 0 50 0 50 0 50 0" fill="none" stroke="#fff" stroke-opacity=".14" stroke-width="3.2"/>
  <!-- city on the headland -->
  <path d="M0 176q40-14 78 4t14 60l-22 60H0z" fill="#0c1a2e"/>
  <rect x="10" y="130" width="22" height="56" fill="#16233a"/><rect x="36" y="104" width="20" height="82" fill="#1a2a44"/><rect x="60" y="138" width="24" height="48" fill="#16233a"/>
  <g fill="#ffd98a"><rect x="14" y="136" width="4" height="5"/><rect x="22" y="136" width="4" height="5"/><rect x="14" y="148" width="4" height="5"/><rect x="22" y="160" width="4" height="5"/><rect x="40" y="110" width="4" height="5"/><rect x="48" y="110" width="4" height="5"/><rect x="40" y="124" width="4" height="5"/><rect x="48" y="138" width="4" height="5"/><rect x="40" y="152" width="4" height="5"/><rect x="64" y="144" width="4" height="5"/><rect x="74" y="144" width="4" height="5"/><rect x="64" y="158" width="4" height="5"/><rect x="74" y="168" width="4" height="5"/></g>
  <rect x="0" y="178" width="100" height="70" fill="url(#glow)"/>
  <!-- cable with current dots -->
  <path d="M96 238Q170 262 240 232T330 200" fill="none" stroke="#ffd166" stroke-width="2.2" stroke-dasharray="4 7" stroke-linecap="round"/>
  <!-- wind turbines -->
  <g fill="#f4f8fb"><g transform="translate(250 214)"><path d="M-2 0L-1 -64H1L2 0z"/><rect x="-5" y="-5" width="10" height="8" fill="#f2b705"/><g transform="translate(0 -64)"><circle r="3.2"/><path d="M0 0L-2 -34L1 -34z" transform="rotate(20)"/><path d="M0 0L-2 -34L1 -34z" transform="rotate(140)"/><path d="M0 0L-2 -34L1 -34z" transform="rotate(260)"/></g></g>
  <g transform="translate(318 198) scale(.72)"><path d="M-2 0L-1 -64H1L2 0z"/><rect x="-5" y="-5" width="10" height="8" fill="#f2b705"/><g transform="translate(0 -64)"><circle r="3.2"/><path d="M0 0L-2 -34L1 -34z" transform="rotate(75)"/><path d="M0 0L-2 -34L1 -34z" transform="rotate(195)"/><path d="M0 0L-2 -34L1 -34z" transform="rotate(315)"/></g></g></g>
  <!-- wave device -->
  <g transform="translate(150 246)"><rect x="-34" y="-5" width="17" height="10" rx="5" fill="#e23a54" transform="rotate(-6 -26 0)"/><rect x="-18" y="-5" width="17" height="10" rx="5" fill="#ff6f84" transform="rotate(4 -9 0)"/><rect x="-2" y="-5" width="17" height="10" rx="5" fill="#e23a54" transform="rotate(-5 6 0)"/><rect x="14" y="-5" width="17" height="10" rx="5" fill="#ff6f84" transform="rotate(5 22 0)"/></g>
  <!-- tidal turbine -->
  <g transform="translate(206 262)"><rect x="-9" y="-22" width="18" height="12" rx="2" fill="#e5484d"/><rect x="-1.2" y="-40" width="2.4" height="18" fill="#26303c"/><rect x="-1.5" y="-10" width="3" height="28" fill="#0b3b5b" opacity=".7"/><path d="M-16 16h32" stroke="#e7f2f7" stroke-width="3" stroke-linecap="round" opacity=".6"/></g>
  <!-- bolt badge -->
  <circle cx="352" cy="46" r="26" fill="#ffd166" opacity=".16"/>
  <path d="M356 22l-22 30h16l-6 26 24-34h-17z" fill="#ffd166" stroke="#fff3c4" stroke-width="1.2" stroke-linejoin="round"/>
</svg>
